<svg aria-hidden="true" style="width:0;height:0;position:absolute;overflow:hidden" xmlns="http://www.w3.org/2000/svg"><defs><symbol id="chocolatelogo" viewBox="0 0 28 32"><path fill="none" stroke="#fd9222" style="stroke:var(--color1,#fd9222)" stroke-linejoin="round" stroke-linecap="round" stroke-width="2.667" d="M20.301 23.88 6.114 15.016m3.914-6.417 14.185 8.864M9.296 25.864 21.032 6.615m4.811 8.173c-3.04-1.899-4.233-3.383-2.277-6.591l-9.627-6.016L2.204 21.432l14.187 8.864 9.453-15.507z"/></symbol><symbol id="mastercard" viewBox="0 0 51 32"><path fill="#ed0006" style="fill:var(--color2,#ed0006)" d="M25.6 26.934a14.46 14.46 0 0 1-9.481 3.518h-.016.001c-8.086 0-14.64-6.592-14.64-14.726C1.464 7.593 8.018 1 16.104 1A14.54 14.54 0 0 1 25.6 4.518 14.46 14.46 0 0 1 35.081 1h.016-.001c8.086 0 14.64 6.592 14.64 14.726 0 8.133-6.554 14.726-14.64 14.726h-.015a14.476 14.476 0 0 1-9.499-3.534l.018.016z"/><path fill="#f9a000" style="fill:var(--color3,#f9a000)" d="M25.6 26.934c3.157-2.717 5.144-6.719 5.144-11.184v-.025.001-.024c0-4.465-1.987-8.466-5.125-11.168l-.019-.016A14.46 14.46 0 0 1 35.081 1h.016-.001c8.086 0 14.64 6.592 14.64 14.726 0 8.133-6.554 14.726-14.64 14.726h-.015a14.476 14.476 0 0 1-9.499-3.534l.018.016z"/><path fill="#ff5e00" style="fill:var(--color4,#ff5e00)" d="M25.6 26.934c3.157-2.717 5.144-6.719 5.144-11.184v-.025.001-.024c0-4.465-1.987-8.466-5.125-11.168l-.019-.016c-3.157 2.717-5.144 6.719-5.144 11.184v.025-.001.025c0 4.465 1.987 8.466 5.125 11.167l.019.016z"/></symbol><symbol id="ukraine" viewBox="0 0 41 32"><path fill="gold" style="fill:var(--color5,gold)" d="M40.745 1.354H.31v30.092h40.435V1.354z"/><path fill="#0057b7" style="fill:var(--color6,#0057b7)" d="M.311 1.354h40.434v15.045H.31V1.354z"/></symbol><symbol id="menu" viewBox="0 0 32 32"><path stroke-linejoin="round" stroke-linecap="round" stroke-width="2.5" d="M4 16h24M4 8h24M4 24h24"/></symbol><symbol id="menu-burger" viewBox="0 0 45 32"><path d="M1.2 3.2a2 2 0 0 1 2-2h38.4a2 2 0 1 1 0 4H3.2a2 2 0 0 1-2-2zm0 12.8a2 2 0 0 1 2-2h38.4a2 2 0 1 1 0 4H3.2a2 2 0 0 1-2-2zm0 12.8a2 2 0 0 1 2-2h38.4a2 2 0 1 1 0 4H3.2a2 2 0 0 1-2-2z"/></symbol><symbol id="chocolate" viewBox="0 0 32 32"><path d="m13.822 2.413 7.527 7.536.08-.08a.854.854 0 0 1 1.185-.012l.873.873c.305.305.315.77.083 1.094l-.004.007-.143.192 6.16 6.16c.55.55.55 1.43 0 1.98l-9.43 9.43c-.55.55-1.43.55-1.98 0l-4.447-4.447a.84.84 0 0 1-1.255.071l-2.6-2.6a.854.854 0 0 1-.012-1.185l.006-.007.077-.076-7.527-7.527c-.55-.55-.55-1.43 0-1.98l9.43-9.43c.55-.55 1.43-.55 1.98 0v.001zm6.582 8.48-1.756-1.755a.59.59 0 0 0-.85 0l-3.58 3.58a.603.603 0 0 0 0 .86l1.749 1.749.61-.61-1.565-1.565 3.21-3.22 1.569 1.574.613-.613zm-5.076 5.072-1.754-1.754a.59.59 0 0 0-.85 0l-3.59 3.59c-.24.23-.24.61 0 .85l1.752 1.752.616-.616-1.57-1.564 3.22-3.21 1.564 1.563.612-.611zM8.822 8.193l3.58 3.58c.24.24.62.24.85-.01l3.58-3.58a.579.579 0 0 0 .18-.42h.01c0-.15-.06-.31-.18-.43l-3.58-3.58a.604.604 0 0 0-.86 0l-3.58 3.59c-.24.23-.24.61 0 .85zm-5.07 5.07 3.58 3.58c.24.24.62.24.85 0l3.58-3.58a.579.579 0 0 0 .18-.42v-.01.001h.01c0-.16-.06-.31-.18-.43l-3.58-3.58a.59.59 0 0 0-.85 0l-3.59 3.59c-.24.23-.24.61 0 .85zm6.933 8.754 2.362 2.363 9.636-13.04-.655-.655-11.343 11.332z"/><path d="m13.822 2.413 7.527 7.536.08-.08a.854.854 0 0 1 1.185-.012l.873.873c.305.305.315.77.083 1.094l-.004.007-.143.192 6.16 6.16c.55.55.55 1.43 0 1.98l-9.43 9.43c-.55.55-1.43.55-1.98 0l-4.447-4.447a.84.84 0 0 1-1.255.071l-2.6-2.6a.854.854 0 0 1-.012-1.185l.006-.007.077-.076-7.527-7.527c-.55-.55-.55-1.43 0-1.98l9.43-9.43c.55-.55 1.43-.55 1.98 0v.001zm6.582 8.48-1.756-1.755a.59.59 0 0 0-.85 0l-3.58 3.58a.603.603 0 0 0 0 .86l1.749 1.749.61-.61-1.565-1.565 3.21-3.22 1.569 1.574.613-.613zm-5.076 5.072-1.754-1.754a.59.59 0 0 0-.85 0l-3.59 3.59c-.24.23-.24.61 0 .85l1.752 1.752.616-.616-1.57-1.564 3.22-3.21 1.564 1.563.612-.611zM8.822 8.193l3.58 3.58c.24.24.62.24.85-.01l3.58-3.58a.579.579 0 0 0 .18-.42h.01c0-.15-.06-.31-.18-.43l-3.58-3.58a.604.604 0 0 0-.86 0l-3.58 3.59c-.24.23-.24.61 0 .85zm-5.07 5.07 3.58 3.58c.24.24.62.24.85 0l3.58-3.58a.579.579 0 0 0 .18-.42v-.01.001h.01c0-.16-.06-.31-.18-.43l-3.58-3.58a.59.59 0 0 0-.85 0l-3.59 3.59c-.24.23-.24.61 0 .85zm6.933 8.754 2.362 2.363 9.636-13.04-.655-.655-11.343 11.332z"/></symbol><symbol id="close" viewBox="0 0 32 32"><path d="M32 3.223 28.777 0 16 12.777 3.223 0 0 3.223 12.777 16 0 28.777 3.223 32 16 19.223 28.777 32 32 28.777 19.223 16 32 3.223z"/></symbol><symbol id="coin" viewBox="0 0 32 32"><path d="M16 .762C7.619.762.762 7.619.762 16S7.619 31.238 16 31.238 31.238 24.381 31.238 16 24.381.762 16 .762zm0 27.429C9.295 28.191 3.809 22.705 3.809 16S9.295 3.809 16 3.809 28.191 9.295 28.191 16 22.705 28.191 16 28.191z"/><path d="M17.981 14.477H14.02c-.762 0-1.371-.61-1.371-1.371 0-.762.609-1.371 1.371-1.371h5.638c.914 0 1.525-.61 1.525-1.525s-.61-1.523-1.525-1.523h-2.133V7.316c0-.914-.61-1.523-1.525-1.523s-1.523.609-1.523 1.523v1.371h-.457a4.422 4.422 0 0 0-4.419 4.419 4.423 4.423 0 0 0 4.419 4.418h3.809c.762 0 1.371.61 1.371 1.371 0 .762-.609 1.371-1.371 1.371h-5.638c-.914 0-1.525.61-1.525 1.525s.61 1.523 1.525 1.523h2.286v1.371c0 .914.609 1.523 1.523 1.523s1.525-.609 1.525-1.523v-1.371h.457a4.423 4.423 0 0 0 4.418-4.419 4.423 4.423 0 0 0-4.419-4.418z"/></symbol><symbol id="icon-instagram" viewBox="0 0 32 32"><path d="M8.727 2.909a5.818 5.818 0 0 0-5.818 5.818v14.545a5.818 5.818 0 0 0 5.818 5.818h14.545a5.818 5.818 0 0 0 5.818-5.818V8.727a5.818 5.818 0 0 0-5.818-5.818H8.727zM0 8.727A8.727 8.727 0 0 1 8.727 0h14.545a8.727 8.727 0 0 1 8.727 8.727v14.545a8.727 8.727 0 0 1-8.727 8.727H8.727A8.727 8.727 0 0 1 0 23.272V8.727z"/><path d="M16.703 11.621a4.36 4.36 0 0 0-4.538 2.354 4.36 4.36 0 0 0 .813 5.047 4.365 4.365 0 0 0 6.958-1.075 4.367 4.367 0 0 0-.788-5.095 4.36 4.36 0 0 0-2.445-1.231zm-3.99-2.139a7.272 7.272 0 1 1-1.794 11.597 7.272 7.272 0 0 1 1.793-11.598zM22.545 8c0-.803.651-1.455 1.455-1.455h.015a1.455 1.455 0 0 1 0 2.91H24A1.455 1.455 0 0 1 22.545 8z"/></symbol><symbol id="icon-twitter" viewBox="0 0 37 32"><path d="M22.134 2.058a8.353 8.353 0 0 1 8.545 1.577 15.11 15.11 0 0 0 3.491-1.832 1.523 1.523 0 0 1 2.359 1.606 13.279 13.279 0 0 1-3.04 5.751c.023.246.034.493.035.74v.005c0 9.295-4.475 16.114-10.903 19.536-6.391 3.401-14.559 3.364-21.837-.68a1.523 1.523 0 0 1 .801-2.855 16.22 16.22 0 0 0 7.429-1.475c-2.29-1.413-3.94-3.091-5.086-4.902-1.529-2.415-2.107-4.973-2.211-7.27-.104-2.29.26-4.353.642-5.832.192-.743.392-1.348.545-1.773.077-.213.143-.381.191-.5l.058-.14.018-.041.005-.01.034-.073 1.363.681 1.247-.876a14.724 14.724 0 0 0 10.943 6.219 8.355 8.355 0 0 1 5.372-7.857zM5.188 7.686c-.28 1.221-.503 2.77-.428 4.436.086 1.893.556 3.907 1.741 5.778 1.179 1.861 3.123 3.674 6.308 5.09a1.523 1.523 0 0 1 .237 2.653 19.27 19.27 0 0 1-5.488 2.573c4.831 1.231 9.671.643 13.631-1.464 5.381-2.864 9.287-8.615 9.287-16.843a5.294 5.294 0 0 0-.095-.981c-.096-.5.065-1.014.427-1.371.34-.335.654-.692.942-1.067-.345.127-.694.244-1.047.351a1.523 1.523 0 0 1-1.589-.459c-.713-.82-1.66-1.401-2.714-1.664s-2.163-.197-3.178.19a5.297 5.297 0 0 0-3.411 5.025v1.544c0 .826-.658 1.502-1.484 1.523A17.774 17.774 0 0 1 5.19 7.688z"/></symbol><symbol id="spoon" viewBox="0 0 32 32"><path d="M15.452 14.106a5.125 5.125 0 0 1-1.177-3.279v-.003c0-4.324 5.181-8.642 10.362-8.642a5.184 5.184 0 0 1 5.181 5.182c0 5.182-4.317 10.364-8.646 10.364h-.003a5.13 5.13 0 0 1-3.287-1.184l.009.007L5.133 29.312a1.73 1.73 0 0 1-2.444-2.446l-.001.001 12.764-12.761z"/></symbol><symbol id="x" viewBox="0 0 32 32"><path stroke-linejoin="round" stroke-linecap="round" stroke-width="2.909" d="M24 8 8 24M8 8l16 16"/></symbol></defs></svg>